<?xml version="1.0" standalone="no"?>
<!DOCTYPE svg PUBLIC "-//W3C//DTD SVG 20010904//EN"
 "http://www.w3.org/TR/2001/REC-SVG-20010904/DTD/svg10.dtd">
<svg version="1.0" xmlns="http://www.w3.org/2000/svg"
 width="1024.000000pt" height="1024.000000pt" viewBox="0 0 1024.000000 1024.000000"
 preserveAspectRatio="xMidYMid meet">

<g transform="translate(0.000000,1024.000000) scale(0.100000,-0.100000)"
fill="#000000" stroke="none">
<path d="M4560 6979 c-180 -27 -354 -148 -496 -347 -32 -46 -65 -92 -73 -103
-29 -40 20 -62 177 -80 246 -28 498 59 716 248 47 40 92 73 100 73 30 0 57
-42 54 -84 l-3 -39 -65 -14 c-106 -21 -216 -81 -310 -167 -93 -86 -118 -96
-235 -96 -121 -1 -220 -17 -286 -46 -75 -34 -149 -112 -180 -192 -23 -55 -24
-70 -30 -492 -5 -349 -9 -454 -23 -530 -37 -199 -9 -324 94 -428 177 -176 643
-260 1090 -196 510 74 902 323 1096 697 104 201 128 328 122 659 -4 215 -6
238 -28 292 -27 71 -96 149 -160 181 -60 30 -129 42 -285 50 -75 4 -144 13
-164 21 -19 8 -67 45 -106 83 -85 81 -204 144 -305 162 -99 18 -93 14 -87 64
8 52 32 104 76 159 l31 39 -20 22 c-27 29 -119 75 -148 75 -28 0 -47 -41 -58
-118 -3 -29 -8 -52 -11 -52 -2 0 -14 10 -26 21 -111 107 -292 162 -457 138z
m238 -76 c93 -31 91 -39 -10 -46 -120 -8 -247 -45 -367 -107 -115 -60 -177
-109 -168 -133 10 -26 32 -21 95 22 114 77 246 131 372 151 80 12 170 13 170
1 0 -13 -79 -83 -145 -128 -181 -122 -367 -172 -573 -152 -52 5 -97 11 -100
13 -7 8 88 136 147 199 162 171 394 243 579 180z m377 1 l25 -16 -27 -35 c-15
-19 -37 -69 -49 -111 l-23 -77 0 71 c-1 91 17 184 36 184 7 0 25 -7 38 -16z
m41 -325 c75 -14 177 -54 231 -91 23 -15 70 -55 104 -88 77 -75 110 -85 314
-99 83 -5 166 -15 185 -22 61 -21 119 -68 150 -121 44 -79 53 -153 47 -408 -4
-189 -8 -239 -27 -310 -37 -142 -130 -321 -222 -425 l-30 -35 -927 0 -928 0
-44 23 c-28 15 -54 40 -71 68 -27 43 -28 46 -18 129 5 47 10 212 10 368 l0
282 300 0 c165 0 300 -2 300 -5 0 -2 -7 -30 -15 -62 -17 -66 -19 -217 -4 -283
19 -82 71 -172 139 -240 205 -205 518 -225 740 -48 61 48 141 158 166 227 12
34 37 69 84 115 l67 67 53 -60 c28 -34 60 -61 70 -61 10 0 57 44 106 97 79 85
89 94 92 72 6 -54 13 -69 31 -69 35 0 41 22 33 116 l-7 89 -86 3 c-76 2 -87 1
-91 -15 -8 -31 3 -43 38 -43 19 0 34 -3 34 -6 0 -8 -143 -164 -150 -164 -4 0
-27 25 -51 55 -55 70 -75 71 -133 9 l-43 -47 -7 72 c-15 148 -66 261 -163 358
-233 234 -628 209 -821 -52 l-47 -64 -317 -1 -318 0 0 45 c0 150 63 260 179
313 47 22 77 27 207 34 88 4 169 14 194 23 24 9 70 41 108 76 80 75 148 119
227 148 107 39 209 49 311 30z m4 -465 c166 -38 311 -179 356 -348 29 -110 12
-257 -44 -360 -34 -64 -122 -154 -184 -188 -87 -48 -145 -63 -248 -62 -148 2
-255 49 -358 158 -85 89 -122 188 -122 322 0 321 287 550 600 478z m-1234
-1125 c10 -12 42 -32 69 -45 l50 -24 898 0 c493 0 897 -3 897 -7 -1 -13 -135
-113 -213 -160 -92 -55 -256 -124 -372 -157 -169 -48 -309 -66 -520 -66 -437
0 -727 102 -816 288 -24 48 -40 192 -22 192 6 0 18 -10 29 -21z"/>
<path d="M5803 6140 c-39 -24 -53 -48 -53 -95 0 -64 30 -101 96 -120 33 -9
103 23 119 56 57 110 -58 223 -162 159z m101 -59 c25 -27 17 -72 -15 -90 -24
-13 -29 -13 -53 2 -17 12 -26 26 -26 44 0 55 59 83 94 44z"/>
<path d="M4972 6032 c-290 -104 -376 -469 -161 -684 28 -28 78 -63 117 -81 63
-30 74 -32 177 -32 98 0 116 3 168 27 74 35 156 113 195 186 110 207 25 466
-185 565 -59 27 -81 32 -163 34 -73 3 -107 -1 -148 -15z m283 -72 c148 -71
231 -244 190 -401 -30 -120 -107 -206 -223 -250 -73 -27 -193 -23 -264 9 -70
31 -141 102 -174 175 -25 53 -29 74 -29 147 1 65 6 96 23 133 43 96 118 167
212 201 67 24 199 17 265 -14z"/>
<path d="M5047 5909 c-159 -39 -249 -194 -203 -353 34 -116 136 -191 261 -190
113 0 192 51 247 158 27 52 30 162 5 219 -53 123 -189 196 -310 166z m150 -70
c204 -99 135 -419 -90 -419 -125 0 -217 94 -217 220 0 163 163 269 307 199z"/>
<path d="M3432 3929 c-57 -28 -85 -70 -90 -134 -5 -65 17 -117 63 -145 18 -11
71 -29 117 -39 127 -28 162 -51 150 -104 -5 -26 -55 -47 -109 -47 -45 0 -93
18 -154 57 -31 19 -52 13 -75 -22 -16 -25 -16 -27 2 -53 11 -15 42 -38 70 -52
43 -22 62 -25 154 -25 96 0 109 2 151 27 56 33 83 83 82 152 -1 81 -48 127
-158 152 -115 26 -169 47 -173 67 -11 56 26 87 101 87 43 0 119 -29 131 -49
18 -28 86 12 86 50 0 22 -38 54 -90 78 -64 29 -198 29 -258 0z"/>
<path d="M5478 3929 c-16 -9 -18 -33 -18 -279 0 -256 1 -270 19 -280 12 -6 96
-10 205 -10 175 0 186 1 196 20 6 11 8 36 4 55 l-6 35 -149 0 -149 0 0 65 0
65 116 0 c131 0 154 8 154 50 0 53 -19 60 -151 60 l-119 0 0 60 0 60 150 0
150 0 0 49 c0 35 -4 51 -16 55 -27 10 -368 6 -386 -5z"/>
<path d="M6520 3911 c-5 -11 -10 -42 -10 -70 0 -48 -2 -51 -25 -51 -17 0 -29
-8 -37 -25 -16 -36 3 -75 37 -75 l25 0 0 -102 c1 -159 33 -210 142 -224 74 -9
117 32 88 85 -8 16 -21 21 -50 21 -52 0 -60 17 -60 129 l0 91 44 0 c52 0 69
16 64 62 -3 32 -4 33 -53 36 -27 2 -53 9 -57 15 -4 7 -8 35 -8 63 0 56 -8 64
-60 64 -19 0 -33 -7 -40 -19z"/>
<path d="M4045 3795 c-22 -8 -45 -22 -52 -31 -12 -16 -13 -16 -19 2 -10 25
-24 34 -55 34 -47 0 -50 -13 -47 -226 l3 -199 26 -9 c14 -5 37 -6 51 -3 25 7
25 7 30 148 5 136 6 142 32 167 37 37 96 37 134 -1 26 -27 27 -30 30 -166 l4
-139 34 -6 c18 -4 43 -2 54 4 18 10 20 21 20 138 -1 140 -9 193 -38 231 -43
58 -134 83 -207 56z"/>
<path d="M4506 3795 c-123 -44 -181 -211 -114 -327 35 -58 67 -84 128 -102 56
-17 119 -7 162 24 34 25 38 25 38 1 0 -24 30 -35 70 -26 l30 7 0 131 c0 118
-3 137 -24 183 -49 104 -172 151 -290 109z m156 -109 c24 -15 48 -67 48 -106
0 -69 -53 -120 -126 -120 -28 0 -44 8 -70 34 -32 32 -40 57 -35 106 10 86 109
133 183 86z"/>
<path d="M5056 3795 c-21 -7 -56 -31 -77 -51 -65 -63 -70 -90 -67 -329 l3
-210 39 -3 c60 -5 61 -1 65 160 l1 47 36 -24 c71 -48 189 -29 256 42 84 89 75
258 -18 330 -68 51 -160 66 -238 38z m154 -114 c64 -46 62 -162 -3 -201 -91
-56 -196 11 -184 117 10 95 111 140 187 84z"/>
<path d="M6089 3796 c-91 -32 -149 -115 -149 -213 0 -169 169 -278 309 -198
23 14 44 25 46 25 1 0 5 -9 8 -21 5 -17 12 -20 49 -17 l43 3 3 105 c5 150 -9
202 -68 261 -66 66 -154 86 -241 55z m154 -117 c36 -28 53 -91 37 -142 -27
-92 -170 -104 -215 -17 -29 55 -12 130 37 164 33 23 109 21 141 -5z"/>
</g>
</svg>
